<?xml version="1.0" encoding="UTF-8"?>
<svg width="1023px" height="909px" viewBox="0 0 1023 909" version="1.1" xmlns="http://www.w3.org/2000/svg" xmlns:xlink="http://www.w3.org/1999/xlink">
    <!-- Generator: Sketch 50.2 (55047) - http://www.bohemiancoding.com/sketch -->
    <title>fsc_logo</title>
    <desc>Created with Sketch.</desc>
    <defs>
        <polygon id="path-1" points="0.364091759 43.4348278 116.299956 43.4348278 116.299956 0.273527545 0.364091759 0.273527545"></polygon>
        <polygon id="path-3" points="0.364091759 43.4348278 116.299956 43.4348278 116.299956 0.273527545 0.364091759 0.273527545"></polygon>
    </defs>
    <g id="Page-1" stroke="none" stroke-width="1" fill="none" fill-rule="evenodd">
        <g id="fsc_logo" transform="translate(511.000000, 454.000000) scale(1, -1) translate(-511.000000, -454.000000) translate(-1.000000, -1.000000)">
            <g id="g604" transform="translate(126.260242, 11.480989)" fill="#FFBF00" fill-rule="nonzero">
                <path d="M442.918766,0 C198.694109,0 0,198.725183 0,442.988034 C0,687.250885 198.694109,885.976068 442.918766,885.976068 C687.143423,885.976068 885.837533,687.250885 885.837533,442.988034 C885.837533,198.725183 687.143423,0 442.918766,0" id="path606"></path>
            </g>
            <g id="g608" transform="translate(114.999595, 0.218581)" fill="#0D0C0B" fill-rule="nonzero">
                <path d="M454.179413,908.500883 C332.864713,908.500883 218.809378,861.251329 133.025772,775.454307 C47.242166,689.657286 0,575.584113 0,454.250441 C0,332.91677 47.242166,218.843597 133.025772,133.046576 C218.809378,47.2495542 332.864713,0 454.179413,0 C575.494112,0 689.549448,47.2495542 775.333054,133.046576 C861.11666,218.843597 908.358826,332.91677 908.358826,454.250441 C908.358826,575.584113 861.11666,689.657286 775.333054,775.454307 C689.549448,861.251329 575.494112,908.500883 454.179413,908.500883 M454.179413,885.976068 C692.578562,885.976068 885.837533,692.686874 885.837533,454.250441 C885.837533,215.814009 692.578562,22.5248153 454.179413,22.5248153 C215.780264,22.5248153 22.5212932,215.814009 22.5212932,454.250441 C22.5212932,692.686874 215.780264,885.976068 454.179413,885.976068" id="path610"></path>
            </g>
            <g id="g612" transform="translate(12.403844, 11.480989)" fill="#FFBF00" fill-rule="nonzero">
                <path d="M442.918766,0 C198.694109,0 0,198.725183 0,442.988034 C0,687.250885 198.694109,885.976068 442.918766,885.976068 L512.768557,885.976068 L513.477978,0 L442.918766,0 Z" id="path614"></path>
            </g>
            <g id="g616" transform="translate(0.809260, 0.218581)" fill="#0D0C0B" fill-rule="nonzero">
                <path d="M535.615905,908.500883 L513.113379,908.500883 L454.512975,908.500883 C333.198275,908.500883 219.142939,861.251329 133.359333,775.454307 C47.5757277,689.657286 0.33356165,575.584113 0.33356165,454.250441 C0.33356165,332.91677 47.5757277,218.843597 133.359333,133.046576 C219.142939,47.2495542 333.198275,0 454.512975,0 L513.804032,0 L536.344093,0 L536.325326,22.543586 L535.634673,885.994838 L535.615905,908.500883 Z M513.113379,885.976068 L513.804032,22.5248153 L454.512975,22.5248153 C216.113825,22.5248153 22.8548548,215.814009 22.8548548,454.250441 C22.8548548,692.686874 216.113825,885.976068 454.512975,885.976068 L513.113379,885.976068 Z M513.278536,885.976068 L513.113379,885.976068 L513.278536,885.976068 Z" id="path618"></path>
            </g>
            <g id="g620" transform="translate(137.520888, 22.743396)" fill="#FFBF00" fill-rule="nonzero">
                <path d="M431.65812,0 C193.25897,0 0,193.289194 0,431.725626 C0,670.162058 193.25897,863.451252 431.65812,863.451252" id="path622"></path>
            </g>
            <g id="g624" transform="translate(127.847995, 22.165498)" fill="#0D0C0B" fill-rule="nonzero">
                <path d="M441.331013,0.577898708 C384.798813,-1.47561362 327.590975,8.42028856 274.373159,29.1618893 C221.189125,50.0048517 172.028896,81.6634796 130.946303,121.870275 C89.6872941,161.915642 56.8137132,210.595522 34.2999271,263.679004 C11.8762261,316.84883 0.491712421,374.591194 0.292774331,432.303525 C0.465437579,490.01961 11.8874868,547.754466 34.2774058,600.935554 C56.8024525,654.019036 89.6610193,702.713932 130.923782,742.7593 C172.013881,782.962341 221.174111,814.628477 274.361898,835.471439 C327.587221,856.201778 384.798813,866.09768 441.331013,864.029151 C384.840102,861.919327 329.051105,849.605761 277.893988,826.957059 C226.650539,804.567393 180.117793,772.124151 141.279823,732.401639 C102.633284,692.506437 71.392497,645.500902 50.691675,594.129306 C29.7055832,542.91163 18.9253909,487.628225 19.0530116,432.303525 C18.8953625,376.971316 29.7168439,321.699174 50.6691537,270.466481 C71.3812363,219.102394 102.603256,172.081842 141.261056,132.18664 C180.102779,92.4641285 226.635525,60.0171321 277.882727,37.6274657 C329.047352,14.9862722 384.840102,2.67270653 441.331013,0.577898708" id="path626"></path>
            </g>
            <g id="g628" transform="translate(477.079681, 251.456736)" stroke="#0D0C0B" stroke-linecap="round" stroke-width="6.08844281">
                <path d="M0,58.4780555 C9.94315095,25.6368748 64.2044534,0.52921405 129.670099,0.52921405 C195.139498,0.52921405 249.400801,25.6368748 259.343952,58.4780555" id="path630"></path>
            </g>
            <g id="g632" transform="translate(16.157393, 433.196212)" fill="#0D0C0B" fill-rule="nonzero" stroke="#0D0C0B" stroke-linecap="round" stroke-width="4.5663321">
                <path d="M101.345819,0 L0,0" id="path634"></path>
            </g>
            <g id="g636" transform="translate(31.171588, 358.113494)" fill="#0D0C0B" fill-rule="nonzero" stroke="#0D0C0B" stroke-linecap="round" stroke-width="4.5663321">
                <path d="M112.606466,0 L0,0" id="path638"></path>
            </g>
            <g id="g640" transform="translate(42.432235, 301.801456)" fill="#0D0C0B" fill-rule="nonzero" stroke="#0D0C0B" stroke-linecap="round" stroke-width="4.5663321">
                <path d="M116.360015,0 L0,0" id="path642"></path>
            </g>
            <g id="g644" transform="translate(98.735468, 207.948059)" fill="#0D0C0B" fill-rule="nonzero" stroke="#0D0C0B" stroke-linecap="round" stroke-width="4.5663321">
                <path d="M112.606466,0 L0,0" id="path646"></path>
            </g>
            <g id="g648" transform="translate(72.460626, 245.489418)" fill="#0D0C0B" fill-rule="nonzero" stroke="#0D0C0B" stroke-linecap="round" stroke-width="4.5663321">
                <path d="M112.606466,0 L0,0" id="path650"></path>
            </g>
            <g id="g652" transform="translate(128.763859, 170.406700)" fill="#0D0C0B" fill-rule="nonzero" stroke="#0D0C0B" stroke-linecap="round" stroke-width="4.5663321">
                <path d="M112.606466,0 L0,0" id="path654"></path>
            </g>
            <g id="g656" transform="translate(162.545799, 132.865341)" fill="#0D0C0B" fill-rule="nonzero" stroke="#0D0C0B" stroke-linecap="round" stroke-width="4.5663321">
                <path d="M116.360015,0 L0,0" id="path658"></path>
            </g>
            <g id="g660" transform="translate(211.341934, 87.815711)" fill="#0D0C0B" fill-rule="nonzero" stroke="#0D0C0B" stroke-linecap="round" stroke-width="4.5663321">
                <path d="M86.3316239,0 L0,0" id="path662"></path>
            </g>
            <g id="g664" transform="translate(241.370325, 76.553303)" fill="#0D0C0B" fill-rule="nonzero" stroke="#0D0C0B" stroke-linecap="round" stroke-width="4.5663321">
                <path d="M75.0709773,0 L0,0" id="path666"></path>
            </g>
            <g id="g668" transform="translate(185.067092, 106.586390)" fill="#0D0C0B" fill-rule="nonzero" stroke="#0D0C0B" stroke-linecap="round" stroke-width="4.5663321">
                <path d="M108.852917,0 L0,0" id="path670"></path>
            </g>
            <g id="g672" transform="translate(294.597154, 367.545999)" fill="#0D0C0B" fill-rule="nonzero">
                <path d="M173.241289,86.9230239 C173.241289,134.611812 134.587243,173.271903 86.9059119,173.271903 C39.2208271,173.271903 0.570534466,134.611812 0.570534466,86.9230239 C0.570534466,39.2342359 39.2208271,0.574144572 86.9059119,0.574144572 C134.587243,0.574144572 173.241289,39.2342359 173.241289,86.9230239" id="path674"></path>
            </g>
            <g id="g676" transform="translate(332.278276, 435.433045)" fill="#FFFFFF" fill-rule="nonzero">
                <path d="M71.3174285,35.9532402 C71.3174285,16.4805374 55.5337555,0.694396029 36.060344,0.694396029 C16.590686,0.694396029 0.807013006,16.4805374 0.807013006,35.9532402 C0.807013006,55.425943 16.590686,71.2120844 36.060344,71.2120844 C55.5337555,71.2120844 71.3174285,55.425943 71.3174285,35.9532402" id="path678"></path>
            </g>
            <g id="g680" transform="translate(397.794723, 404.904668)" fill="#FFFFFF" fill-rule="nonzero">
                <path d="M25.133259,22.5248153 C30.1179719,17.5393228 30.1179719,9.45666828 25.133259,4.47117583 C20.1485461,-0.51056248 12.070909,-0.51056248 7.08244251,4.47117583 C2.10148317,9.45666828 -2.44031096,22.0818272 2.54440193,27.0635656 C7.52911483,32.049058 20.1485461,27.5103077 25.133259,22.5248153" id="path682"></path>
            </g>
            <g id="g684" transform="translate(707.487530, 367.545999)" fill="#0D0C0B" fill-rule="nonzero">
                <path d="M173.241289,86.9230239 C173.241289,134.611812 134.587243,173.271903 86.9059119,173.271903 C39.2208271,173.271903 0.570534466,134.611812 0.570534466,86.9230239 C0.570534466,39.2342359 39.2208271,0.574144572 86.9059119,0.574144572 C134.587243,0.574144572 173.241289,39.2342359 173.241289,86.9230239" id="path686"></path>
            </g>
            <g id="g688" transform="translate(210.563450, 350.964267)">
                <g id="g702" transform="translate(-0.000000, 0.000000)">
                    <g id="g700-Clipped" transform="translate(-0.000000, 0.000000)">
                        <mask id="mask-2" fill="white">
                            <use xlink:href="#path-1"></use>
                        </mask>
                        <g id="path692"></g>
                        <g id="g700" opacity="0.35000604" mask="url(#mask-2)">
                            <g transform="translate(-0.446171, -1.141782)" id="g698">
                                <g transform="translate(0.386862, 0.471144)">
                                    <path d="M116.360015,22.5248153 C116.360015,10.6054339 90.4042245,0.942288106 58.3902062,0.942288106 C26.3761879,0.942288106 0.424151022,10.6054339 0.424151022,22.5248153 C0.424151022,34.4441967 26.3761879,44.1035883 58.3902062,44.1035883 C90.4042245,44.1035883 116.360015,34.4441967 116.360015,22.5248153" id="path696" fill="#ED1E79" fill-rule="nonzero"></path>
                                </g>
                            </g>
                        </g>
                    </g>
                </g>
            </g>
            <g id="g704" transform="translate(856.173855, 354.718402)">
                <g id="g718" transform="translate(-0.000000, 0.000000)">
                    <g id="g716-Clipped" transform="translate(-0.000000, 0.000000)">
                        <mask id="mask-4" fill="white">
                            <use xlink:href="#path-3"></use>
                        </mask>
                        <g id="path708"></g>
                        <g id="g716" opacity="0.35000604" mask="url(#mask-4)">
                            <g transform="translate(-0.446171, -1.141782)" id="g714">
                                <g transform="translate(0.386862, 0.471144)">
                                    <path d="M116.360015,22.5248153 C116.360015,10.6054339 90.4042245,0.942288106 58.3902062,0.942288106 C26.3761879,0.942288106 0.424151022,10.6054339 0.424151022,22.5248153 C0.424151022,34.4441967 26.3761879,44.1035883 58.3902062,44.1035883 C90.4042245,44.1035883 116.360015,34.4441967 116.360015,22.5248153" id="path712" fill="#ED1E79" fill-rule="nonzero"></path>
                                </g>
                            </g>
                        </g>
                    </g>
                </g>
            </g>
            <g id="g720" transform="translate(200.081287, 779.201776)" fill="#0D0C0B" fill-rule="nonzero">
                <path d="M0,30.033087 C76.3209091,78.8368535 111.979623,61.3988923 83.0247474,1.01737082 C194.163576,103.33259 354.083525,110.747008 354.083525,110.747008 C354.083525,110.747008 144.823176,151.103969 0,30.033087" id="path722"></path>
            </g>
            <g id="g724" transform="translate(200.081287, 779.201776)" stroke="#0D0C0B" stroke-linecap="round" stroke-width="1.5221107">
                <path d="M0,30.033087 C76.3209091,78.8368535 111.979623,61.3988923 83.0247474,1.01737082 C194.163576,103.33259 354.083525,110.747008 354.083525,110.747008 C354.083525,110.747008 144.823176,151.103969 0,30.033087 Z" id="path726"></path>
            </g>
            <g id="g728" transform="translate(200.081287, 15.118264)" fill="#0D0C0B" fill-rule="nonzero">
                <path d="M0,87.3693609 C76.3209091,38.5655944 127.207771,54.550705 79.2711985,116.385077 C190.410027,14.0661037 354.083525,6.65543943 354.083525,6.65543943 C354.083525,6.65543943 144.823176,-33.7015213 0,87.3693609" id="path730"></path>
            </g>
            <g id="g732" transform="translate(200.081287, 15.118264)" stroke="#0D0C0B" stroke-linecap="round" stroke-width="1.5221107">
                <path d="M0,87.3693609 C76.3209091,38.5655944 127.207771,54.550705 79.2711985,116.385077 C190.410027,14.0661037 354.083525,6.65543943 354.083525,6.65543943 C354.083525,6.65543943 144.823176,-33.7015213 0,87.3693609 Z" id="path734"></path>
            </g>
            <g id="g736" transform="translate(707.487530, 367.545999)" fill="#0D0C0B" fill-rule="nonzero">
                <path d="M173.241289,86.9230239 C173.241289,134.611812 134.587243,173.271903 86.9059119,173.271903 C39.2208271,173.271903 0.570534466,134.611812 0.570534466,86.9230239 C0.570534466,39.2342359 39.2208271,0.574144572 86.9059119,0.574144572 C134.587243,0.574144572 173.241289,39.2342359 173.241289,86.9230239" id="path738"></path>
            </g>
            <g id="g740" transform="translate(745.168651, 435.433045)" fill="#FFFFFF" fill-rule="nonzero">
                <path d="M71.3174285,35.9532402 C71.3174285,16.4805374 55.5337555,0.694396029 36.060344,0.694396029 C16.590686,0.694396029 0.807013006,16.4805374 0.807013006,35.9532402 C0.807013006,55.425943 16.590686,71.2120844 36.060344,71.2120844 C55.5337555,71.2120844 71.3174285,55.425943 71.3174285,35.9532402" id="path742"></path>
            </g>
            <g id="g744" transform="translate(810.685098, 404.904668)" fill="#FFFFFF" fill-rule="nonzero">
                <path d="M25.133259,22.5248153 C30.1179719,17.5393228 30.1179719,9.45666828 25.133259,4.47117583 C20.1485461,-0.51056248 12.070909,-0.51056248 7.08244251,4.47117583 C2.10148317,9.45666828 -2.44031096,22.0818272 2.54440193,27.0635656 C7.52911483,32.049058 20.1485461,27.5103077 25.133259,22.5248153" id="path746"></path>
            </g>
        </g>
    </g>
</svg>